<?xml version="1.0" encoding="utf-8"?>
<!-- Generator: Adobe Illustrator 19.0.0, SVG Export Plug-In . SVG Version: 6.00 Build 0)  -->
<svg version="1.1" id="Capa_1" xmlns="http://www.w3.org/2000/svg" xmlns:xlink="http://www.w3.org/1999/xlink" x="0px" y="0px"
	 viewBox="-349 151 260 260" style="enable-background:new -349 151 260 260;" xml:space="preserve">
<style type="text/css">
	.st0{fill:#FF0000;}
</style>
<g>
	<g id="i-like-food">
		<path class="st0" d="M-324.6,167c0.2,0.6,0.4,1.3,0.5,2h-3.7l1.2,2.3l0.5,0.9l-0.2,0.1v6.6c2.2,1.7,2.7,4.8,1,7
			c-0.8,1-1.9,1.7-3.2,1.9l0,0.1c-0.9,3.5-4.1,6-7.8,6h-20c-3.6,0-6.8-2.5-7.7-6l0-0.1c-2.7-0.4-4.6-3-4.2-5.7
			c0.2-1.3,0.9-2.5,1.9-3.2v-6.8l-0.8-1.6l-0.4-0.9l0.9-0.4l0.6-0.3h-2.9c2.8-12.4,15.1-20.2,27.5-17.4
			C-333.6,153.3-327.1,159.2-324.6,167z M-361.5,169c-0.2,0-0.3,0-0.4,0.1l-3.1,1.6l0.9,1.8l1.3-0.7c0.8-0.4,1.8-0.4,2.7,0l2.2,1.1
			c0.3,0.1,0.6,0.1,0.9,0l2.2-1.1c0.8-0.4,1.8-0.4,2.7,0l2.2,1.1c0.3,0.1,0.6,0.1,0.9,0l2.2-1.1c0.8-0.4,1.8-0.4,2.7,0l2.2,1.1
			c0.3,0.1,0.6,0.1,0.9,0l2.9-1.3c0.8-0.3,1.7-0.3,2.4,0l2.9,1.3c0.3,0.1,0.6,0.1,0.9,0l3.1-1.6l-0.9-1.8l-1.4,0.7
			c-0.8,0.4-1.7,0.4-2.6,0.1l-2.8-1.2c-0.1-0.1-0.3-0.1-0.4-0.1h0c-0.1,0-0.3,0-0.4,0.1l-2.8,1.2c-0.8,0.4-1.8,0.3-2.6-0.1l-2.3-1.2
			c-0.1-0.1-0.3-0.1-0.5-0.1h0c-0.2,0-0.3,0-0.4,0.1l-2.2,1.1c-0.8,0.4-1.8,0.4-2.7,0l-2.2-1.1c-0.1-0.1-0.3-0.1-0.5-0.1h0
			c-0.2,0-0.3,0-0.4,0.1l-2.2,1.1c-0.8,0.4-1.8,0.4-2.7,0l-2.2-1.1C-361.1,169-361.3,169-361.5,169L-361.5,169L-361.5,169z
			 M-361.5,167h-4.9c3.9-10.9,15.9-16.7,26.8-12.8c6,2.1,10.7,6.8,12.8,12.8h-2.1l-0.1-0.1l-0.3,0.1H-361.5L-361.5,167z
			 M-331.1,174.7l1.4-0.7h1.3v2h-36v-1.1l0.3-0.2l1.4-0.7h2.6l1.4,0.7c0.8,0.4,1.8,0.4,2.7,0l1.4-0.7h2.6l1.4,0.7
			c0.8,0.4,1.8,0.4,2.7,0l1.4-0.7h2.6l1.4,0.7c0.8,0.4,1.7,0.4,2.6,0.1l1.7-0.7h3.2l1.7,0.7C-332.8,175.1-331.9,175.1-331.1,174.7z
			 M-362.8,178l16.4,4.9l16.4-4.9H-362.8z M-363.5,180h0.3l16.7,5l16.7-5h0.3c1.7,0,3,1.3,3,3s-1.3,3-3,3h-34c-1.7,0-3-1.3-3-3
			S-365.1,180-363.5,180z M-362.1,188c0.8,2.4,3.1,4,5.6,4h20c2.5,0,4.8-1.6,5.7-4C-330.8,188-362.1,188-362.1,188z"/>
		<path id="path6_fill-copy" class="st0" d="M-64.6,167c0.2,0.6,0.4,1.3,0.5,2h-3.7l1.2,2.3l0.5,0.9l-0.2,0.1v6.6
			c2.2,1.7,2.7,4.8,1,7c-0.8,1-1.9,1.7-3.2,1.9l0,0.1c-0.9,3.5-4.1,6-7.8,6h-20c-3.6,0-6.8-2.5-7.7-6l0-0.1c-2.7-0.4-4.6-3-4.2-5.7
			c0.2-1.3,0.9-2.5,1.9-3.2v-6.8l-0.8-1.6l-0.4-0.9l0.9-0.4l0.6-0.3h-2.9c2.8-12.4,15.1-20.2,27.5-17.4
			C-73.6,153.3-67.1,159.2-64.6,167z M-101.5,169c-0.2,0-0.3,0-0.4,0.1l-3.1,1.6l0.9,1.8l1.3-0.7c0.8-0.4,1.8-0.4,2.7,0l2.2,1.1
			c0.3,0.1,0.6,0.1,0.9,0l2.2-1.1c0.8-0.4,1.8-0.4,2.7,0l2.2,1.1c0.3,0.1,0.6,0.1,0.9,0l2.2-1.1c0.8-0.4,1.8-0.4,2.7,0l2.2,1.1
			c0.3,0.1,0.6,0.1,0.9,0l2.9-1.3c0.8-0.3,1.7-0.3,2.4,0l2.9,1.3c0.3,0.1,0.6,0.1,0.9,0l3.1-1.6l-0.9-1.8l-1.4,0.7
			c-0.8,0.4-1.7,0.4-2.6,0.1l-2.8-1.2c-0.1-0.1-0.3-0.1-0.4-0.1h0c-0.1,0-0.3,0-0.4,0.1l-2.8,1.2c-0.8,0.4-1.8,0.3-2.6-0.1l-2.3-1.2
			c-0.1-0.1-0.3-0.1-0.5-0.1h0c-0.2,0-0.3,0-0.4,0.1l-2.2,1.1c-0.8,0.4-1.8,0.4-2.7,0l-2.2-1.1c-0.1-0.1-0.3-0.1-0.4-0.1h0
			c-0.2,0-0.3,0-0.4,0.1l-2.2,1.1c-0.8,0.4-1.8,0.4-2.7,0l-2.2-1.1C-101.1,169-101.3,169-101.5,169L-101.5,169L-101.5,169z
			 M-101.5,167h-4.9c3.9-10.9,15.9-16.7,26.8-12.8c6,2.1,10.7,6.8,12.8,12.8h-2.1l-0.1-0.1l-0.3,0.1H-101.5L-101.5,167z
			 M-71.1,174.7l1.4-0.7h1.3v2h-36v-1.1l0.3-0.2l1.4-0.7h2.6l1.4,0.7c0.8,0.4,1.8,0.4,2.7,0l1.4-0.7h2.6l1.4,0.7
			c0.8,0.4,1.8,0.4,2.7,0l1.4-0.7h2.6l1.4,0.7c0.8,0.4,1.7,0.4,2.6,0.1l1.7-0.7h3.2l1.7,0.7C-72.8,175.1-71.9,175.1-71.1,174.7
			L-71.1,174.7z M-102.8,178l16.4,4.9l16.4-4.9H-102.8z M-103.5,180h0.3l16.7,5l16.7-5h0.3c1.7,0,3,1.3,3,3s-1.3,3-3,3h-34
			c-1.7,0-3-1.3-3-3S-105.1,180-103.5,180z M-102.1,188c0.8,2.4,3.1,4,5.6,4h20c2.5,0,4.8-1.6,5.7-4H-102.1z"/>
		<path class="st0" d="M-189.5,172c-1.3-3.6-4.7-6-8.5-6h-42c-3.8,0-7.2,2.4-8.5,6c-3.3,0.3-5.8,3.2-5.5,6.5
			c0.2,2.9,2.6,5.2,5.5,5.5c-1.7,4.7,0.8,9.8,5.4,11.5c1,0.3,2,0.5,3,0.5h42c5,0,9-4,9-9c0-1-0.2-2.1-0.5-3c3.3-0.3,5.8-3.2,5.5-6.5
			C-184.3,174.6-186.6,172.3-189.5,172z M-198,168h-42c-2.7,0-5.2,1.6-6.3,4h54.7C-192.8,169.6-195.3,168-198,168z M-207.3,194
			c2.1-1.7,3.3-4.3,3.3-7h-2c0,3.9-3.1,7-7,7h-4.3c2.1-1.7,3.3-4.3,3.3-7h-2c0,3.9-3.1,7-7,7h-4.3c2.1-1.7,3.3-4.3,3.3-7h-2
			c0,3.9-3.1,7-7,7h-7c-3.9,0-7-3.1-7-7s3.1-7,7-7h42c3.9,0,7,3.1,7,7s-3.1,7-7,7H-207.3z M-240,178c-3,0-5.8,1.5-7.5,4h-0.5
			c-2.2,0-4-1.8-4-4s1.8-4,4-4h58c2.2,0,4,1.8,4,4s-1.8,4-4,4h-0.5c-1.7-2.5-4.5-4-7.5-4H-240z"/>
		<path class="st0" d="M-310,266c4.4,0,8-3.6,8-8s-3.6-8-8-8s-8,3.6-8,8S-314.4,266-310,266z M-304,258c0,3.3-2.7,6-6,6s-6-2.7-6-6
			c0-3.3,2.7-6,6-6S-304,254.7-304,258z M-307,229v-2h8v-6h-10c-2.2,0-4,1.8-4,4v10h-14l-1.3,4l-0.7,2h2.2l3.8,40h26l3.8-40h2.2
			l-0.7-2l-1.3-4h-14V229z M-311,225v10h2v-10h8v-2h-8C-310.1,223-311,223.9-311,225z M-309,237h14.6l0.7,2h-32.5l0.7-2H-309z
			 M-295.2,241h-29.6l3.6,38h22.4L-295.2,241z"/>
		<path class="st0" d="M-220,243h-6v4h-6v4h-6v14h-3l0.2,2l3.8,32h36l3.8-32l0.2-2h-3v-14h-6v-4h-6v-4H-220z M-202,265v-12h-4v4h3v8
			H-202z M-205,265v-6h-4v6H-205z M-211,271v-16h-4v19.2C-213.4,273.5-212,272.4-211,271z M-217,274.8V251h-4v23.8
			C-219.7,275.1-218.3,275.1-217,274.8z M-223,274.2V255h-4v16C-226,272.4-224.6,273.5-223,274.2z M-229,265v-6h-4v6H-229z
			 M-235,265v-8h3v-4h-4v12H-235z M-208,253v-4h-4v4h3v4h1V253z M-214,253v-8h-4v4h3v4H-214z M-220,249v-4h-4v8h1v-4H-220z
			 M-226,253v-4h-4v8h1v-4H-226z M-219,277c5.9,0,10.9-4.2,11.8-10h7.9l-3.5,30h-32.4l-3.5-30h7.9C-229.9,272.8-224.9,277-219,277z"
			/>
		<path class="st0" d="M-137,237v2h-4v-2H-137z M-133,237h-2v2h2V237z M-153,237v0.1c-2.7,0.6-4.5,3.2-3.9,5.9
			c0.4,1.8,1.6,3.2,3.3,3.8l0.1,0.3l1.1,4.5c0.2,0.9,1,1.5,1.9,1.5h0l7,24.5c0.2,0.9,1,1.4,1.9,1.5h5c0.9,0,1.7-0.6,1.9-1.5l7-24.5
			c0.9,0,1.7-0.6,1.9-1.5l1.1-4.5l0.1-0.3c2.6-0.9,4.1-3.7,3.2-6.3c-0.6-1.7-2-3-3.8-3.3V237c0-7.7-6.3-14-14-14S-153,229.3-153,237
			z M-149,237h6v2h-9c-1.7,0-3,1.3-3,3s1.3,3,3,3h26c1.7,0,3-1.3,3-3s-1.3-3-3-3h-3v-2h2c0-6.6-5.4-12-12-12s-12,5.4-12,12H-149z
			 M-150.4,251l-1-4h24.9l-1,4H-150.4z M-141.5,277l-6.9-24h18.7l-6.9,24H-141.5z M-199,393c12.2,0,22-9.8,22-22s-9.8-22-22-22
			s-22,9.8-22,22S-211.2,393-199,393z M-175,371c0,13.3-10.7,24-24,24s-24-10.7-24-24l0,0c0-13.3,10.7-24,24-24S-175,357.7-175,371z
			 M-203.4,388.7l2-0.9c1.5-0.6,3.2-0.6,4.7,0l2,0.9c0.9,0.4,2,0,2.5-0.8l1.1-1.9c0.8-1.4,2.2-2.4,3.8-2.8l2.1-0.5
			c1-0.2,1.6-1.1,1.5-2.1l-0.2-2.2c-0.1-1.6,0.4-3.2,1.4-4.5l1.4-1.7c0.7-0.8,0.7-1.9,0-2.6l-1.4-1.7c-1.1-1.2-1.6-2.8-1.4-4.5
			l0.2-2.2c0.1-1-0.6-1.9-1.6-2.1l-2.1-0.5c-1.6-0.4-3-1.4-3.8-2.8l-1.1-1.9c-0.5-0.9-1.6-1.2-2.5-0.8l-2,0.9
			c-1.5,0.6-3.2,0.6-4.7,0l-2-0.9c-0.9-0.4-2,0-2.5,0.8l-1.1,1.9c-0.8,1.4-2.2,2.4-3.8,2.8l-2.1,0.5c-1,0.2-1.6,1.1-1.5,2.1l0.2,2.2
			c0.1,1.6-0.4,3.2-1.4,4.5l-1.4,1.7c-0.7,0.8-0.7,1.9,0,2.6l1.4,1.7c1.1,1.2,1.6,2.8,1.4,4.5l-0.2,2.2c-0.1,1,0.6,1.9,1.6,2.1
			l2.1,0.5c1.6,0.4,3,1.4,3.8,2.8l1.1,1.9C-205.4,388.8-204.3,389.1-203.4,388.7L-203.4,388.7z M-200.6,389.7c1-0.4,2.1-0.4,3.1,0
			l2,0.9c1.8,0.8,4,0.1,5-1.6l1.1-1.9c0.6-0.9,1.5-1.6,2.5-1.8l2.1-0.5c1.9-0.4,3.3-2.3,3.1-4.2l-0.2-2.2c-0.1-1.1,0.3-2.2,1-3
			l1.4-1.7c1.3-1.5,1.3-3.7,0-5.2l-1.4-1.7c-0.7-0.8-1.1-1.9-1-3l0.2-2.2c0.2-2-1.1-3.8-3.1-4.3l-2.1-0.5c-1.1-0.2-2-0.9-2.5-1.8
			l-1.1-1.9c-1-1.7-3.2-2.4-5-1.6l-2,0.9c-1,0.4-2.1,0.4-3.1,0l-2-0.9c-1.8-0.8-4-0.1-5,1.6l-1.1,1.9c-0.6,0.9-1.5,1.6-2.5,1.8
			l-2.1,0.5c-1.9,0.4-3.3,2.3-3.1,4.2l0.2,2.2c0.1,1.1-0.3,2.2-1,3l-1.4,1.7c-1.3,1.5-1.3,3.7,0,5.2l1.4,1.7c0.7,0.8,1.1,1.9,1,3
			l-0.2,2.2c-0.2,2,1.1,3.8,3.1,4.3l2.1,0.5c1.1,0.2,2,0.9,2.5,1.8l1.1,1.9c1,1.7,3.2,2.4,5,1.6L-200.6,389.7z M-197,358
			c0-0.6,0.4-1,1-1s1,0.4,1,1s-0.4,1-1,1S-197,358.6-197,358z M-191,360c0-0.6,0.4-1,1-1s1,0.4,1,1s-0.4,1-1,1S-191,360.6-191,360z
			 M-202,361c0-0.6,0.4-1,1-1s1,0.4,1,1s-0.4,1-1,1S-202,361.6-202,361z M-208,361c0-0.6,0.4-1,1-1s1,0.4,1,1s-0.4,1-1,1
			S-208,361.6-208,361z M-205,356c0-0.6,0.4-1,1-1s1,0.4,1,1s-0.4,1-1,1S-205,356.6-205,356z M-213,364c0-0.6,0.4-1,1-1s1,0.4,1,1
			s-0.4,1-1,1S-213,364.6-213,364z M-210,370c0-0.6,0.4-1,1-1s1,0.4,1,1s-0.4,1-1,1S-210,370.6-210,370z M-210,376c0-0.6,0.4-1,1-1
			s1,0.4,1,1s-0.4,1-1,1S-210,376.6-210,376z M-206,383c0-0.6,0.4-1,1-1s1,0.4,1,1s-0.4,1-1,1S-206,383.6-206,383z M-201,381
			c0-0.6,0.4-1,1-1s1,0.4,1,1s-0.4,1-1,1S-201,381.6-201,381z M-196,385c0-0.6,0.4-1,1-1s1,0.4,1,1s-0.4,1-1,1S-196,385.6-196,385z
			 M-192,379c0-0.6,0.4-1,1-1s1,0.4,1,1s-0.4,1-1,1S-192,379.6-192,379z M-186,375c0-0.6,0.4-1,1-1s1,0.4,1,1s-0.4,1-1,1
			S-186,375.6-186,375z M-190,372c0-0.6,0.4-1,1-1s1,0.4,1,1s-0.4,1-1,1S-190,372.6-190,372z M-186,369c0-0.6,0.4-1,1-1s1,0.4,1,1
			s-0.4,1-1,1S-186,369.6-186,369z M-191,365c0-0.6,0.4-1,1-1s1,0.4,1,1s-0.4,1-1,1S-191,365.6-191,365z M-215,371c0-0.6,0.4-1,1-1
			s1,0.4,1,1s-0.4,1-1,1S-215,371.6-215,371z M-199,376c2.8,0,5-2.2,5-5s-2.2-5-5-5s-5,2.2-5,5S-201.8,376-199,376z M-192,371
			c0,3.9-3.1,7-7,7s-7-3.1-7-7s3.1-7,7-7S-192,367.1-192,371z M-106,342c-0.6,0-1,0.4-1,1s0.4,1,1,1h2c0.6,0,1-0.4,1-1s-0.4-1-1-1
			H-106z M-87,351c0-0.6,0.4-1,1-1h2c0.6,0,1,0.4,1,1s-0.4,1-1,1h-2C-86.6,352-87,351.6-87,351z M-101,356c-0.6,0-1,0.4-1,1
			s0.4,1,1,1h2c0.6,0,1-0.4,1-1s-0.4-1-1-1H-101z M-126,357c-0.6,0-1,0.4-1,1s0.4,1,1,1h2c0.6,0,1-0.4,1-1s-0.4-1-1-1H-126z
			 M-121,361c-0.6,0-1,0.4-1,1s0.4,1,1,1h2c0.6,0,1-0.4,1-1s-0.4-1-1-1H-121z M-112,361c0-0.6,0.4-1,1-1h2c0.6,0,1,0.4,1,1
			s-0.4,1-1,1h-2C-111.6,362-112,361.6-112,361z M-97,362c0-0.6,0.4-1,1-1h2c0.6,0,1,0.4,1,1s-0.4,1-1,1h-2
			C-96.6,363-97,362.6-97,362z M-85,360c-0.6,0-1,0.4-1,1s0.4,1,1,1h2c0.6,0,1-0.4,1-1s-0.4-1-1-1H-85z M-96,346c0-0.6,0.4-1,1-1h2
			c0.6,0,1,0.4,1,1s-0.4,1-1,1h-2C-95.6,347-96,346.6-96,346z M-115,346c-0.6,0-1,0.4-1,1s0.4,1,1,1h2c0.6,0,1-0.4,1-1s-0.4-1-1-1
			H-115z M-109,351c0-0.6,0.4-1,1-1h2c0.6,0,1,0.4,1,1s-0.4,1-1,1h-2C-108.6,352-109,351.6-109,351z M-134,366c0-0.5,0-0.9,0-1.4
			c-2.5-1.1-3.7-4-2.6-6.6c0.2-0.5,0.5-1,0.9-1.4c-0.9-2,0-4.2,1.9-5.2c-0.8-2.6,0.7-5.4,3.4-6.2c0,0,0,0,0,0c0.4-0.5,0.9-0.9,1.5-1
			c0.5-2.7,3.1-4.5,5.8-4.1c0.7,0.1,1.4,0.4,2,0.8c5.3-3.8,11.6-5.9,18.2-5.9c6.8,0,13.1,2.2,18.2,5.9c2.3-1.6,5.4-1,7,1.3
			c0.4,0.6,0.7,1.3,0.8,2c0.6,0.2,1.1,0.6,1.5,1c2.7,0.8,4.2,3.5,3.4,6.2c0,0,0,0,0,0c1.9,1,2.7,3.2,1.9,5.2c1.9,2,1.8,5.2-0.2,7
			c-0.4,0.4-0.9,0.7-1.5,1c0,0.5,0,0.9,0,1.4v1h-62V366z M-133.2,358.8c-0.3,1.2-0.5,2.4-0.6,3.6c-1.3-1-1.6-2.9-0.6-4.2
			c0,0,0,0,0,0C-134,358.5-133.6,358.7-133.2,358.8L-133.2,358.8z M-131.7,354.2c-0.4,0.9-0.7,1.8-1,2.7c-1-0.4-1.6-1.5-1.3-2.5
			c0.2-0.5,0.6-0.9,1.1-1.2C-132.5,353.6-132.1,353.9-131.7,354.2L-131.7,354.2z M-129.4,349.7c-0.5,0.9-1,1.8-1.5,2.7
			c-1.3-1-1.5-2.9-0.5-4.2c0.1-0.2,0.3-0.3,0.4-0.5C-130.7,348.6-130.1,349.3-129.4,349.7L-129.4,349.7z M-128.2,348
			c0.4-0.5,0.7-1,1.1-1.5c-0.3-0.5-0.9-0.7-1.4-0.4s-0.7,0.9-0.4,1.4C-128.7,347.7-128.5,347.9-128.2,348L-128.2,348z M-122.9,342.2
			c-1,0.9-2,1.8-2.9,2.8c-0.3-0.3-0.7-0.6-1.1-0.8c0.4-1.6,2.1-2.5,3.7-2.1C-123.1,342.1-123,342.2-122.9,342.2L-122.9,342.2z
			 M-80.2,345c-0.9-1-1.9-1.9-2.9-2.8c1.5-0.6,3.3,0.1,3.9,1.7c0,0.1,0.1,0.2,0.1,0.3C-79.5,344.4-79.9,344.6-80.2,345L-80.2,345z
			 M-78.9,346.5c0.4,0.5,0.8,1,1.1,1.4c0.5-0.1,0.9-0.7,0.8-1.2c-0.1-0.5-0.7-0.9-1.2-0.8C-78.5,346.1-78.7,346.3-78.9,346.5z
			 M-75.1,352.4c-0.5-0.9-1-1.8-1.5-2.7c0.8-0.4,1.4-1.1,1.6-2c1.3,1.1,1.4,3,0.4,4.2C-74.8,352.1-75,352.2-75.1,352.4z
			 M-73.4,356.9c-0.3-0.9-0.6-1.8-1-2.7c0.4-0.3,0.8-0.6,1.2-1c1,0.5,1.4,1.7,1,2.7C-72.4,356.3-72.8,356.7-73.4,356.9z
			 M-72.2,362.4c-0.1-1.2-0.4-2.4-0.6-3.6c0.5-0.1,0.9-0.4,1.2-0.6C-70.6,359.5-70.9,361.4-72.2,362.4
			C-72.2,362.4-72.2,362.4-72.2,362.4L-72.2,362.4z M-74,365c-0.5-16-13.9-28.6-29.9-28.1c-15.3,0.5-27.6,12.8-28.1,28.1H-74
			L-74,365z M-276.7,349.1c-0.2-0.3-0.3-0.7-0.3-1.1v-12h-2v12c0,2.2,1.8,4,4,4c1.2,0,2.3-0.5,3.1-1.4c0.6-0.7,0.9-1.6,0.9-2.5v-12
			h-2v12c0,1.1-0.9,2-2,2c0,0,0,0,0,0C-275.7,350-276.3,349.7-276.7,349.1z M-274,327c0.4,0,0.7,0,1.1-0.1c0.5,2.2,2.6,3.5,4.8,3
			c0.5-0.1,1-0.3,1.4-0.6c1.1,2.1,1.7,4.4,1.7,6.7v24c0,3.3-2.7,6-6,6h-3v9c0,2.8-2.2,5-5,5s-5-2.2-5-5v-9h-3c-3.3,0-6-2.7-6-6v-24
			c0-7.7,6.3-14,14-14C-279,324.8-276.8,327-274,327z M-291,342v12c0,0.8,0.5,1.5,1.2,1.8c0.9,0.4,1.9,0.1,2.4-0.7
			c0.2-0.3,0.3-0.7,0.3-1.1v-12h2v12c0,2.2-1.7,4-3.9,4c-0.5,0-1-0.1-1.4-0.2c-0.2-0.1-0.4-0.2-0.6-0.3v2.5c0,2.2,1.8,4,4,4h16
			c2.2,0,4-1.8,4-4v-24c0-1.5-0.2-2.9-0.7-4.2c-0.4,0.1-0.9,0.2-1.3,0.2c-2.1,0-4.1-1.1-5.2-3c-3-0.1-5.6-2-6.5-4.9
			C-286.6,325-291,330-291,336V342z M-282,366v9c0,1.7,1.3,3,3,3s3-1.3,3-3v-9H-282z"/>
		<path class="st0" d="M-366,342c-0.6,0-1,0.4-1,1s0.4,1,1,1h2c0.6,0,1-0.4,1-1s-0.4-1-1-1H-366z M-347,351c0-0.6,0.4-1,1-1h2
			c0.6,0,1,0.4,1,1s-0.4,1-1,1h-2C-346.6,352-347,351.6-347,351z M-361,356c-0.6,0-1,0.4-1,1s0.4,1,1,1h2c0.6,0,1-0.4,1-1
			s-0.4-1-1-1H-361z M-386,357c-0.6,0-1,0.4-1,1s0.4,1,1,1h2c0.6,0,1-0.4,1-1s-0.4-1-1-1H-386z M-381,361c-0.6,0-1,0.4-1,1
			s0.4,1,1,1h2c0.6,0,1-0.4,1-1s-0.4-1-1-1H-381z M-372,361c0-0.6,0.4-1,1-1h2c0.6,0,1,0.4,1,1s-0.4,1-1,1h-2
			C-371.6,362-372,361.6-372,361z M-357,362c0-0.6,0.4-1,1-1h2c0.6,0,1,0.4,1,1s-0.4,1-1,1h-2C-356.6,363-357,362.6-357,362z
			 M-345,360c-0.6,0-1,0.4-1,1s0.4,1,1,1h2c0.6,0,1-0.4,1-1s-0.4-1-1-1H-345z M-356,346c0-0.6,0.4-1,1-1h2c0.6,0,1,0.4,1,1
			s-0.4,1-1,1h-2C-355.6,347-356,346.6-356,346z M-375,346c-0.6,0-1,0.4-1,1s0.4,1,1,1h2c0.6,0,1-0.4,1-1s-0.4-1-1-1H-375z
			 M-369,351c0-0.6,0.4-1,1-1h2c0.6,0,1,0.4,1,1s-0.4,1-1,1h-2C-368.6,352-369,351.6-369,351z M-394,366c0-0.5,0-0.9,0-1.4
			c-2.5-1.1-3.7-4-2.6-6.6c0.2-0.5,0.5-1,0.9-1.4c-0.9-2,0-4.2,1.9-5.2c-0.8-2.6,0.7-5.4,3.4-6.2c0,0,0,0,0,0c0.4-0.5,0.9-0.9,1.5-1
			c0.5-2.7,3.1-4.5,5.8-4.1c0.7,0.1,1.4,0.4,2,0.8c5.3-3.8,11.6-5.9,18.2-5.9c6.8,0,13.1,2.2,18.2,5.9c2.3-1.6,5.4-1,7,1.3
			c0.4,0.6,0.7,1.3,0.8,2c0.6,0.2,1.1,0.6,1.5,1c2.7,0.8,4.2,3.5,3.4,6.2c0,0,0,0,0,0c1.9,1,2.7,3.2,1.9,5.2c1.9,2,1.8,5.2-0.2,7
			c-0.4,0.4-0.9,0.7-1.5,1c0,0.5,0,0.9,0,1.4v1h-62V366z M-393.2,358.8c-0.3,1.2-0.5,2.4-0.6,3.6c-1.3-1-1.6-2.9-0.6-4.2
			c0,0,0,0,0,0C-394,358.5-393.6,358.7-393.2,358.8L-393.2,358.8z M-391.7,354.2c-0.4,0.9-0.7,1.8-1,2.7c-1-0.4-1.6-1.5-1.3-2.5
			c0.2-0.5,0.6-0.9,1.1-1.2C-392.5,353.6-392.1,353.9-391.7,354.2L-391.7,354.2z M-389.4,349.7c-0.5,0.9-1,1.8-1.5,2.7
			c-1.3-1-1.5-2.9-0.5-4.2c0.1-0.2,0.3-0.3,0.4-0.5C-390.7,348.6-390.1,349.3-389.4,349.7z M-388.2,348c0.4-0.5,0.7-1,1.1-1.5
			c-0.3-0.5-0.9-0.7-1.4-0.4s-0.7,0.9-0.4,1.4C-388.7,347.7-388.5,347.9-388.2,348L-388.2,348z M-382.9,342.2c-1,0.9-2,1.8-2.9,2.8
			c-0.3-0.3-0.7-0.6-1.1-0.8c0.4-1.6,2.1-2.5,3.7-2.1C-383.1,342.1-383,342.2-382.9,342.2L-382.9,342.2z M-340.2,345
			c-0.9-1-1.9-1.9-2.9-2.8c1.5-0.6,3.3,0.1,3.9,1.7c0,0.1,0.1,0.2,0.1,0.3C-339.5,344.4-339.9,344.6-340.2,345L-340.2,345z
			 M-338.9,346.5c0.4,0.5,0.8,1,1.1,1.4c0.5-0.1,0.9-0.7,0.8-1.2c-0.1-0.5-0.7-0.9-1.2-0.8C-338.5,346.1-338.7,346.3-338.9,346.5z
			 M-335.1,352.4c-0.5-0.9-1-1.8-1.5-2.7c0.8-0.4,1.4-1.1,1.6-2c1.3,1.1,1.4,3,0.4,4.2C-334.8,352.1-335,352.2-335.1,352.4z
			 M-333.4,356.9c-0.3-0.9-0.6-1.8-1-2.7c0.4-0.3,0.8-0.6,1.2-1c1,0.5,1.4,1.7,1,2.7C-332.4,356.3-332.8,356.7-333.4,356.9z
			 M-332.2,362.4c-0.1-1.2-0.4-2.4-0.6-3.6c0.4-0.1,0.9-0.4,1.2-0.6C-330.6,359.5-330.9,361.4-332.2,362.4
			C-332.2,362.4-332.2,362.4-332.2,362.4L-332.2,362.4z M-334,365c-0.5-16-13.9-28.6-29.9-28.1c-15.3,0.5-27.6,12.8-28.1,28.1H-334
			L-334,365z"/>
	</g>
</g>
</svg>
